<svg xmlns="http://www.w3.org/2000/svg" xmlns:xlink="http://www.w3.org/1999/xlink" width="1080" zoomAndPan="magnify" viewBox="0 0 810 809.999993" height="1080" preserveAspectRatio="xMidYMid meet" version="1.0"><defs><clipPath id="f313ff5396"><path d="M 1.121094 1.007812 L 629.421875 1.007812 L 629.421875 629.308594 L 1.121094 629.308594 Z M 1.121094 1.007812 " clip-rule="nonzero"/></clipPath><clipPath id="6b771959c2"><path d="M 315.269531 1.007812 C 141.769531 1.007812 1.121094 141.660156 1.121094 315.160156 C 1.121094 488.660156 141.769531 629.308594 315.269531 629.308594 C 488.769531 629.308594 629.421875 488.660156 629.421875 315.160156 C 629.421875 141.660156 488.769531 1.007812 315.269531 1.007812 Z M 315.269531 1.007812 " clip-rule="nonzero"/></clipPath><clipPath id="a871feceb8"><path d="M 0.121094 0.0078125 L 628.421875 0.0078125 L 628.421875 628.308594 L 0.121094 628.308594 Z M 0.121094 0.0078125 " clip-rule="nonzero"/></clipPath><clipPath id="1cae63ff98"><path d="M 314.269531 0.0078125 C 140.769531 0.0078125 0.121094 140.660156 0.121094 314.160156 C 0.121094 487.660156 140.769531 628.308594 314.269531 628.308594 C 487.769531 628.308594 628.421875 487.660156 628.421875 314.160156 C 628.421875 140.660156 487.769531 0.0078125 314.269531 0.0078125 Z M 314.269531 0.0078125 " clip-rule="nonzero"/></clipPath><clipPath id="6599607c2f"><rect x="0" width="629" y="0" height="629"/></clipPath><clipPath id="40028949ce"><path d="M 106 162 L 570 162 L 570 569 L 106 569 Z M 106 162 " clip-rule="nonzero"/></clipPath><clipPath id="b6f302789c"><path d="M 106.433594 462.21875 L 520.121094 162.792969 L 670.519531 370.585938 L 256.835938 670.011719 Z M 106.433594 462.21875 " clip-rule="nonzero"/></clipPath><clipPath id="4faa08fe0f"><path d="M 106.433594 462.21875 L 520.121094 162.792969 L 670.519531 370.585938 L 256.835938 670.011719 Z M 106.433594 462.21875 " clip-rule="nonzero"/></clipPath><clipPath id="4affa8c16e"><rect x="0" width="671" y="0" height="671"/></clipPath></defs><g transform="matrix(1, 0, 0, 1, 90, 90)"><g clip-path="url(#4affa8c16e)"><g clip-path="url(#f313ff5396)"><g clip-path="url(#6b771959c2)"><g transform="matrix(1, 0, 0, 1, 1, 1)"><g clip-path="url(#6599607c2f)"><g clip-path="url(#a871feceb8)"><g clip-path="url(#1cae63ff98)"><path fill="#e11d48" d="M 0.121094 0.0078125 L 628.421875 0.0078125 L 628.421875 628.308594 L 0.121094 628.308594 Z M 0.121094 0.0078125 " fill-opacity="1" fill-rule="nonzero"/></g></g></g></g></g></g><g clip-path="url(#40028949ce)"><g clip-path="url(#b6f302789c)"><g clip-path="url(#4faa08fe0f)"><path fill="#120f0b" d="M 520.066406 162.832031 L 520.773438 163.808594 C 540.976562 191.714844 555.105469 222.746094 562.773438 256.039062 C 570.179688 288.195312 571.273438 321.09375 566.03125 353.820312 C 560.789062 386.546875 549.46875 417.457031 532.386719 445.6875 C 514.699219 474.917969 491.582031 499.980469 463.671875 520.179688 C 435.765625 540.382812 404.734375 554.511719 371.441406 562.179688 C 339.285156 569.585938 306.386719 570.683594 273.660156 565.4375 C 240.933594 560.195312 210.023438 548.875 181.792969 531.792969 C 152.5625 514.109375 127.5 490.988281 107.300781 463.082031 L 106.59375 462.105469 Z M 520.066406 162.832031 " fill-opacity="1" fill-rule="nonzero"/></g></g></g></g></g></svg>