<svg xmlns="http://www.w3.org/2000/svg" xmlns:xlink="http://www.w3.org/1999/xlink" width="1080" zoomAndPan="magnify" viewBox="0 0 810 809.999993" height="1080" preserveAspectRatio="xMidYMid meet" version="1.0"><defs><g/><clipPath id="bae438bb6f"><path d="M 0.246094 0.640625 L 145.164062 0.640625 L 145.164062 145.558594 L 0.246094 145.558594 Z M 0.246094 0.640625 " clip-rule="nonzero"/></clipPath><clipPath id="c5294424bf"><path d="M 72.707031 0.640625 C 32.6875 0.640625 0.246094 33.082031 0.246094 73.101562 C 0.246094 113.117188 32.6875 145.558594 72.707031 145.558594 C 112.722656 145.558594 145.164062 113.117188 145.164062 73.101562 C 145.164062 33.082031 112.722656 0.640625 72.707031 0.640625 Z M 72.707031 0.640625 " clip-rule="nonzero"/></clipPath><clipPath id="d7c97313b5"><path d="M 0.246094 0.640625 L 145.164062 0.640625 L 145.164062 145.558594 L 0.246094 145.558594 Z M 0.246094 0.640625 " clip-rule="nonzero"/></clipPath><clipPath id="1d9ebd0ea0"><path d="M 72.707031 0.640625 C 32.6875 0.640625 0.246094 33.082031 0.246094 73.101562 C 0.246094 113.117188 32.6875 145.558594 72.707031 145.558594 C 112.722656 145.558594 145.164062 113.117188 145.164062 73.101562 C 145.164062 33.082031 112.722656 0.640625 72.707031 0.640625 Z M 72.707031 0.640625 " clip-rule="nonzero"/></clipPath><clipPath id="4094f209b2"><rect x="0" width="146" y="0" height="146"/></clipPath><clipPath id="ba86f61e23"><path d="M 24 37 L 132 37 L 132 132 L 24 132 Z M 24 37 " clip-rule="nonzero"/></clipPath><clipPath id="9d6de7970c"><path d="M 24.535156 107.019531 L 119.953125 37.957031 L 154.644531 85.882812 L 59.226562 154.949219 Z M 24.535156 107.019531 " clip-rule="nonzero"/></clipPath><clipPath id="1d73d3ffeb"><path d="M 24.535156 107.019531 L 119.953125 37.957031 L 154.644531 85.882812 L 59.226562 154.949219 Z M 24.535156 107.019531 " clip-rule="nonzero"/></clipPath><clipPath id="502c1b2543"><rect x="0" width="155" y="0" height="155"/></clipPath></defs><g transform="matrix(1, 0, 0, 1, 602, 529)"><g clip-path="url(#502c1b2543)"><g clip-path="url(#bae438bb6f)"><g clip-path="url(#c5294424bf)"><g transform="matrix(1, 0, 0, 1, -0.000000000000113687, 0.000000000000113687)"><g clip-path="url(#4094f209b2)"><g clip-path="url(#d7c97313b5)"><g clip-path="url(#1d9ebd0ea0)"><path fill="#e11d48" d="M 0.246094 0.640625 L 145.164062 0.640625 L 145.164062 145.558594 L 0.246094 145.558594 Z M 0.246094 0.640625 " fill-opacity="1" fill-rule="nonzero"/></g></g></g></g></g></g><g clip-path="url(#ba86f61e23)"><g clip-path="url(#9d6de7970c)"><g clip-path="url(#1d73d3ffeb)"><path fill="#120f0b" d="M 119.941406 37.964844 L 120.105469 38.191406 C 124.765625 44.628906 128.023438 51.785156 129.792969 59.464844 C 131.5 66.878906 131.753906 74.46875 130.542969 82.015625 C 129.335938 89.566406 126.722656 96.695312 122.785156 103.207031 C 118.703125 109.949219 113.371094 115.730469 106.933594 120.390625 C 100.496094 125.046875 93.339844 128.308594 85.660156 130.074219 C 78.246094 131.785156 70.65625 132.035156 63.109375 130.828125 C 55.558594 129.617188 48.429688 127.007812 41.917969 123.066406 C 35.175781 118.988281 29.394531 113.65625 24.738281 107.21875 L 24.574219 106.992188 Z M 119.941406 37.964844 " fill-opacity="1" fill-rule="nonzero"/></g></g></g></g></g><g fill="#120f0b" fill-opacity="1"><g transform="translate(76.140746, 663.037715)"><g><path d="M 65.953125 -72.703125 C 64.597656 -72.703125 61.859375 -72.703125 57.734375 -72.703125 C 53.609375 -72.703125 49.296875 -72.703125 44.796875 -72.703125 C 40.296875 -72.703125 36.617188 -72.703125 33.765625 -72.703125 L 33.765625 -20.265625 C 39.015625 -20.265625 44.414062 -20.265625 49.96875 -20.265625 C 55.519531 -20.265625 60.847656 -20.265625 65.953125 -20.265625 C 72.398438 -20.265625 78.4375 -21.125 84.0625 -22.84375 C 89.695312 -24.570312 94.273438 -27.234375 97.796875 -30.828125 C 101.328125 -34.429688 103.09375 -39.007812 103.09375 -44.5625 C 103.09375 -51.164062 101.363281 -56.53125 97.90625 -60.65625 C 94.457031 -64.789062 89.921875 -67.832031 84.296875 -69.78125 C 78.671875 -71.726562 72.554688 -72.703125 65.953125 -72.703125 Z M 65.953125 -137.3125 C 65.648438 -137.3125 63.847656 -137.3125 60.546875 -137.3125 C 57.242188 -137.3125 53.53125 -137.3125 49.40625 -137.3125 C 45.28125 -137.3125 41.640625 -137.3125 38.484375 -137.3125 C 35.335938 -137.3125 33.765625 -137.3125 33.765625 -137.3125 L 33.765625 -91.84375 C 36.617188 -91.84375 40.296875 -91.84375 44.796875 -91.84375 C 49.296875 -91.84375 53.609375 -91.84375 57.734375 -91.84375 C 61.859375 -91.84375 64.597656 -91.84375 65.953125 -91.84375 C 75.703125 -91.84375 83.203125 -93.679688 88.453125 -97.359375 C 93.710938 -101.035156 96.34375 -107.222656 96.34375 -115.921875 C 96.34375 -122.671875 93.710938 -127.921875 88.453125 -131.671875 C 83.203125 -135.429688 75.703125 -137.3125 65.953125 -137.3125 Z M 11.25 -157.5625 C 17.40625 -157.5625 23.554688 -157.5625 29.703125 -157.5625 C 35.859375 -157.5625 42.015625 -157.5625 48.171875 -157.5625 C 51.171875 -157.5625 54.171875 -157.5625 57.171875 -157.5625 C 60.171875 -157.5625 63.097656 -157.5625 65.953125 -157.5625 C 79.609375 -157.5625 90.410156 -155.644531 98.359375 -151.8125 C 106.316406 -147.988281 111.984375 -142.960938 115.359375 -136.734375 C 118.734375 -130.515625 120.421875 -123.800781 120.421875 -116.59375 C 120.421875 -109.539062 118.695312 -103.5 115.25 -98.46875 C 111.800781 -93.445312 106.921875 -88.757812 100.609375 -84.40625 C 108.265625 -80.207031 114.003906 -76.046875 117.828125 -71.921875 C 121.660156 -67.796875 124.210938 -63.554688 125.484375 -59.203125 C 126.765625 -54.847656 127.40625 -50.195312 127.40625 -45.25 C 127.40625 -37.144531 125.265625 -29.640625 120.984375 -22.734375 C 116.710938 -15.828125 110.035156 -10.3125 100.953125 -6.1875 C 91.878906 -2.0625 80.210938 0 65.953125 0 C 63.546875 0 61.179688 0 58.859375 0 C 56.535156 0 54.171875 0 51.765625 0 C 46.515625 0 41.265625 0 36.015625 0 C 30.765625 0 25.363281 0 19.8125 0 C 18.3125 0 16.882812 0 15.53125 0 C 14.175781 0 12.75 0 11.25 0 Z M 11.25 -157.5625 "/></g></g></g><g fill="#120f0b" fill-opacity="1"><g transform="translate(212.324517, 663.037715)"><g><path d="M 67.53125 -94.546875 C 60.476562 -94.546875 54.25 -92.816406 48.84375 -89.359375 C 43.4375 -85.910156 39.195312 -81.296875 36.125 -75.515625 C 33.050781 -69.742188 31.515625 -63.332031 31.515625 -56.28125 C 31.515625 -49.21875 33.050781 -42.757812 36.125 -36.90625 C 39.195312 -31.0625 43.4375 -26.445312 48.84375 -23.0625 C 54.25 -19.6875 60.476562 -18 67.53125 -18 C 74.726562 -18 81.101562 -19.6875 86.65625 -23.0625 C 92.207031 -26.445312 96.554688 -31.0625 99.703125 -36.90625 C 102.859375 -42.757812 104.4375 -49.21875 104.4375 -56.28125 C 104.4375 -63.332031 102.859375 -69.742188 99.703125 -75.515625 C 96.554688 -81.296875 92.207031 -85.910156 86.65625 -89.359375 C 81.101562 -92.816406 74.726562 -94.546875 67.53125 -94.546875 Z M 67.53125 -114.796875 C 74.726562 -114.796875 81.816406 -113.671875 88.796875 -111.421875 C 95.773438 -109.171875 102.078125 -105.679688 107.703125 -100.953125 C 113.328125 -96.222656 117.789062 -90.179688 121.09375 -82.828125 C 124.394531 -75.484375 126.046875 -66.632812 126.046875 -56.28125 L 126.046875 0 L 103.546875 0 L 103.546875 -14.40625 C 103.546875 -14.40625 102.71875 -13.539062 101.0625 -11.8125 C 99.414062 -10.09375 97.015625 -8.101562 93.859375 -5.84375 C 90.710938 -3.59375 86.882812 -1.644531 82.375 0 C 77.875 1.644531 72.703125 2.46875 66.859375 2.46875 C 66.859375 2.46875 66.816406 2.46875 66.734375 2.46875 C 66.660156 2.46875 66.625 2.46875 66.625 2.46875 C 54.769531 2.46875 44.453125 -0.226562 35.671875 -5.625 C 26.898438 -11.03125 20.148438 -18.234375 15.421875 -27.234375 C 10.691406 -36.234375 8.328125 -45.988281 8.328125 -56.5 C 8.328125 -63.550781 9.488281 -70.523438 11.8125 -77.421875 C 14.144531 -84.328125 17.710938 -90.59375 22.515625 -96.21875 C 27.316406 -101.851562 33.429688 -106.359375 40.859375 -109.734375 C 48.285156 -113.109375 57.023438 -114.796875 67.078125 -114.796875 C 67.222656 -114.796875 67.296875 -114.796875 67.296875 -114.796875 C 67.296875 -114.796875 67.375 -114.796875 67.53125 -114.796875 Z M 67.53125 -114.796875 "/></g></g></g><g fill="#120f0b" fill-opacity="1"><g transform="translate(347.382785, 663.037715)"><g><path d="M 117.28125 -0.21875 L 94.765625 -0.21875 L 94.765625 -56.046875 C 94.765625 -68.804688 92.023438 -78.5625 86.546875 -85.3125 C 81.066406 -92.0625 73.226562 -95.4375 63.03125 -95.4375 C 53.125 -95.4375 45.582031 -92.0625 40.40625 -85.3125 C 35.226562 -78.5625 32.640625 -68.734375 32.640625 -55.828125 L 32.640625 0 L 11.25 -0.21875 L 11.25 -62.34375 C 11.25 -71.945312 13.347656 -80.722656 17.546875 -88.671875 C 21.753906 -96.628906 27.910156 -103.007812 36.015625 -107.8125 C 44.117188 -112.613281 53.875 -115.015625 65.28125 -115.015625 C 67.832031 -115.015625 71.242188 -114.753906 75.515625 -114.234375 C 79.796875 -113.710938 84.335938 -112.585938 89.140625 -110.859375 C 93.941406 -109.128906 98.476562 -106.351562 102.75 -102.53125 C 107.03125 -98.707031 110.519531 -93.566406 113.21875 -87.109375 C 115.925781 -80.660156 117.28125 -72.40625 117.28125 -62.34375 Z M 117.28125 -0.21875 "/></g></g></g><g fill="#120f0b" fill-opacity="1"><g transform="translate(475.913248, 663.037715)"><g><path d="M 11.25 -168.828125 L 33.765625 -168.828125 L 33.765625 -57.171875 L 85.3125 -112.546875 L 112.328125 -112.546875 L 64.15625 -61.453125 L 113.453125 0 L 85.53125 0 L 49.296875 -45.6875 L 33.765625 -28.59375 L 33.765625 0 L 11.25 0 Z M 11.25 -168.828125 "/></g></g></g></svg>